<?xml version="1.0" encoding="UTF-8"?>
<svg width="47px" height="42px" viewBox="0 0 47 42" version="1.1" xmlns="http://www.w3.org/2000/svg" xmlns:xlink="http://www.w3.org/1999/xlink">
    <!-- Generator: sketchtool 42 (36781) - http://www.bohemiancoding.com/sketch -->
    <title>88E111E6-1158-4B4B-9D1C-D2554DDFA2E0</title>
    <desc>Created with sketchtool.</desc>
    <defs></defs>
    <g id="Article" stroke="none" stroke-width="1" fill="none" fill-rule="evenodd" opacity="0.5">
        <g id="Estetica---Article---Desktop" transform="translate(-976.000000, -1406.000000)" fill="#000000">
            <g id="icons-text-block" transform="translate(329.000000, 1297.000000)">
                <g id="text-icon-block" transform="translate(560.000000, 109.000000)">
                    <g id="Page-1" transform="translate(87.000000, 0.000000)">
                        <path d="M39.2,23.9996 L44.2,23.9996 L44.2,1.9996 L39.2,1.9996 L39.2,23.9996 Z M9.2,23.9996 L37.2,23.9996 L37.2,1.9996 L9.2,1.9996 L9.2,23.9996 Z M2.2,23.9996 L7.2,23.9996 L7.2,1.9996 L2.2,1.9996 L2.2,23.9996 Z M45.2,-0.0004 L38.4,-0.0004 L38.1,-0.0004 L38,-0.0004 L8.5,-0.0004 L8.4,-0.0004 L8.1,-0.0004 L8.058,-0.0004 L8,-0.0004 L1.2,-0.0004 C0.6,-0.0004 0.2,0.3996 0.2,0.9996 L0.2,24.9996 L0.2,25.0996 C0.2,25.5996 0.7,25.9996 1.2,25.9996 L8,25.9996 L8.4,25.9996 L38,25.9996 L38.4,25.9996 L45.2,25.9996 C45.8,25.9996 46.2,25.5996 46.2,24.9996 L46.2,0.9996 C46.2,0.3996 45.8,-0.0004 45.2,-0.0004 L45.2,-0.0004 Z" id="Fill-1"></path>
                        <path d="M42.2,27 C41.6,27 41.2,27.4 41.2,28 L41.2,32.5 C40.4,32.2 39.1,31.7 37.2,31.1 L37.2,28 C37.2,27.4 36.8,27 36.2,27 L36.1,27 L36,27 C35.5,27.1 35.2,27.5 35.2,28 L35.2,30.6 C34.5,30.4 33.7,30.2 32.8,30 C26.1,28.5 15.8,27 1.2,27 L1.1,27 L1,27 C0.4,27.1 -9.01501096e-14,27.5 0.1,28.1 C0.2,28.6 0.6,29.1 1.2,29 C15.7,29 25.8,30.5 32.4,32 C39,33.5 41.8,34.9 41.8,34.9 C42.3,35.1 42.9,34.9 43.1,34.4 C43.2,34.3 43.2,34.2 43.2,34 L43.2,28 C43.2,27.4 42.8,27 42.2,27" id="Fill-3"></path>
                        <path d="M39.2,34.9004 C38.6,34.9004 38.2,35.2994 38.2,35.9004 L38.2,39.0004 C37.5,38.5004 36.5,37.7994 35.2,37.0994 L35.2,34.5994 C35.2,34.0004 34.8,33.5994 34.2,33.5994 L34.1,33.5994 C33.6,33.7004 33.2,34.0994 33.2,34.5994 L33.2,36.0994 C32.4,35.7004 31.6,35.4004 30.6,35.0004 C24.4,32.5004 14.8,30.0004 1.2,30.0004 L1.1,30.0004 L0.942,30.0004 L0.9,30.0004 C0.3,30.0994 0,30.5994 0,31.0994 C0,31.5994 0.6,32.0994 1.2,32.0004 C14.5,32.0004 23.9,34.5004 29.9,36.9004 C35.9,39.2994 38.6,41.7004 38.6,41.7004 C39,42.0994 39.6,42.0004 40,41.5994 C40.2,41.4004 40.2,41.2004 40.2,40.9004 L40.2,35.9004 C40.2,35.2994 39.8,34.9004 39.2,34.9004" id="Fill-4"></path>
                        <path d="M24.825,15.7749 L24.819,15.7749 C24.821,15.7749 24.823,15.7759 24.825,15.7759 L24.825,15.7749 Z" id="Fill-5"></path>
                        <path d="M24.825,17.2251 L24.825,17.2251 L24.822,17.2251 L24.825,17.2251 Z" id="Fill-6"></path>
                        <path d="M22.1248,7.8818 C22.2778,7.8248 22.4448,7.8248 22.6998,7.8248 L23.6998,7.8248 C24.1808,7.8248 24.4628,7.9188 24.7698,8.0208 C25.1468,8.1158 25.4298,8.3028 25.7298,8.5038 C25.9978,8.6818 26.1908,8.8618 26.3818,9.2398 C26.4708,9.5068 26.5748,9.9958 26.5748,10.4998 C26.5748,11.0778 26.4788,11.5638 26.2788,11.9698 C26.1808,12.3608 25.8718,12.6348 25.6308,12.7958 C25.3448,12.9868 25.0618,13.0808 24.6698,13.1788 C24.2838,13.2748 23.9028,13.2748 23.4998,13.2748 L22.1248,13.2748 L22.1248,7.8818 Z M19.6858,15.7748 L19.6858,15.7778 C19.6868,15.7778 19.6888,15.7768 19.6908,15.7768 C20.0908,15.7768 20.4138,16.0998 20.4138,16.4988 C20.4138,16.8988 20.0908,17.2218 19.6908,17.2218 C19.6888,17.2218 19.6868,17.2208 19.6858,17.2208 L19.6858,17.2248 L20.3748,17.2248 L20.3748,18.9998 C20.3748,19.4668 20.8328,19.9248 21.2998,19.9248 C21.7668,19.9248 22.2248,19.4668 22.2248,18.9998 L22.2248,17.2248 L24.7648,17.2248 C24.3758,17.2088 24.0628,16.8938 24.0628,16.5008 C24.0628,16.1058 24.3768,15.7888 24.7688,15.7748 L22.2248,15.7748 L22.2248,14.6248 L23.5998,14.6248 C24.2098,14.6248 24.8238,14.5228 25.4208,14.4238 C26.0428,14.3198 26.5608,14.0088 27.0638,13.7068 C27.5898,13.3918 27.9018,12.8718 28.2078,12.3638 C28.4918,11.8888 28.6248,11.2338 28.6248,10.2998 C28.6248,9.3658 28.4918,8.7108 28.2078,8.2358 C27.9308,7.7748 27.5388,7.3468 27.0748,6.9998 C26.5638,6.6158 25.8198,6.4368 25.5238,6.3778 C25.0538,6.2828 24.4318,6.1748 23.7998,6.1748 C23.4948,6.1748 23.2118,6.2008 22.9388,6.2258 C22.6708,6.2498 22.3948,6.2748 22.0998,6.2748 C21.9398,6.2748 21.7818,6.3008 21.6288,6.3268 C21.4798,6.3518 21.3398,6.3748 21.1698,6.3788 C20.6868,6.4998 20.3748,6.8608 20.3748,7.2978 L20.2768,13.3748 L19.5748,13.3748 L19.5748,13.3828 C19.5818,13.3828 19.5868,13.3798 19.5938,13.3798 C19.9388,13.3798 20.2188,13.6598 20.2188,14.0048 C20.2188,14.3408 19.9518,14.6108 19.6178,14.6248 L20.3748,14.6248 L20.3748,15.7748 L19.6858,15.7748 Z" id="Fill-7"></path>
                        <path d="M20.4139,16.499 C20.4139,16.1 20.0909,15.776 19.6909,15.776 C19.6889,15.776 19.6869,15.777 19.6849,15.777 C19.2889,15.781 18.9689,16.102 18.9689,16.499 C18.9689,16.896 19.2889,17.217 19.6849,17.221 C19.6869,17.221 19.6889,17.222 19.6909,17.222 C20.0909,17.222 20.4139,16.898 20.4139,16.499" id="Fill-8"></path>
                        <path d="M24.0628,16.5005 C24.0628,16.8935 24.3758,17.2085 24.7648,17.2255 C24.7738,17.2255 24.7828,17.2305 24.7938,17.2305 C24.8038,17.2305 24.8128,17.2255 24.8218,17.2255 C24.8228,17.2255 24.8238,17.2245 24.8248,17.2245 C25.2128,17.2075 25.5238,16.8925 25.5238,16.5005 C25.5238,16.1075 25.2128,15.7935 24.8248,15.7765 C24.8228,15.7755 24.8208,15.7745 24.8188,15.7745 C24.8108,15.7745 24.8028,15.7695 24.7938,15.7695 C24.7838,15.7695 24.7768,15.7745 24.7688,15.7745 C24.3768,15.7895 24.0628,16.1055 24.0628,16.5005" id="Fill-9"></path>
                        <path d="M20.2191,14.0048 C20.2191,13.6598 19.9391,13.3798 19.5941,13.3798 C19.5871,13.3798 19.5821,13.3828 19.5751,13.3828 C19.2391,13.3938 18.9691,13.6658 18.9691,14.0048 C18.9691,14.3498 19.2481,14.6298 19.5941,14.6298 C19.6021,14.6298 19.6101,14.6258 19.6181,14.6248 C19.9511,14.6108 20.2191,14.3408 20.2191,14.0048" id="Fill-10"></path>
                    </g>
                </g>
            </g>
        </g>
    </g>
</svg>