<?xml version="1.0" encoding="UTF-8"?>
<svg width="147px" height="146px" viewBox="0 0 147 146" version="1.1" xmlns="http://www.w3.org/2000/svg" xmlns:xlink="http://www.w3.org/1999/xlink">
    <!-- Generator: sketchtool 42 (36781) - http://www.bohemiancoding.com/sketch -->
    <title>07833660-243F-4219-A3F0-F0BC68ED09D0</title>
    <desc>Created with sketchtool.</desc>
    <defs></defs>
    <g id="Promotions" stroke="none" stroke-width="1" fill="none" fill-rule="evenodd">
        <g id="Estetica---Promotions---Desktop" transform="translate(-300.000000, -479.000000)" fill="#33B4B0">
            <g id="Promo-banner" transform="translate(250.000000, 413.000000)">
                <g id="icon" transform="translate(50.000000, 66.000000)">
                    <path d="M89.8508954,0.0176411648 C88.6154045,-0.0731354512 87.3475207,0.188592257 86.1758954,0.752641165 L73.4052704,6.90826616 L60.6346454,0.752641165 C59.073429,0.00691378104 57.358721,-0.0990772174 55.7652704,0.293266165 C54.1718198,0.685609547 52.6700972,1.58081906 51.6308954,2.95764116 L43.1783954,14.3501412 L28.9377704,14.9013912 C25.4890408,15.0404914 22.5978795,17.5553794 22.0471454,20.9651412 L19.7502704,34.9301412 L7.53089542,42.0963912 C4.54145638,43.8190371 3.1286388,47.4531741 4.22339542,50.7326412 L8.72527042,64.1463912 L1.09964542,76.0901412 C-0.750749299,79.0075179 -0.208358048,82.8857336 2.29402042,85.2776412 L12.4921454,95.0163912 L11.2977704,109.257016 C11.0198787,112.701902 13.2274206,115.919233 16.5346454,116.882641 L30.1321454,120.741391 L35.7365204,133.787641 C37.0923455,136.952828 40.4988706,138.844041 43.9133954,138.105766 L57.7865204,135.257641 L68.8115204,144.261391 C70.1467714,145.352563 71.7681226,145.915141 73.4052704,145.915141 C75.0424182,145.915141 76.6637694,145.352563 77.9990204,144.261391 L89.0240204,135.257641 L102.897145,138.105766 C106.301698,138.833234 109.719436,136.965893 111.07402,133.787641 L116.678395,120.741391 L130.275895,116.882641 C133.587805,115.920656 135.795399,112.701232 135.51277,109.257016 L134.318395,95.0163912 L144.51652,85.2776412 C144.537394,85.2576492 144.49594,85.2059052 144.51652,85.1857662 C146.964367,82.7896397 147.538823,78.9843595 145.710895,76.0901412 L138.08527,64.1463912 L142.587145,50.7326412 C143.670106,47.4597979 142.271369,43.8203542 139.279645,42.0963912 L127.06027,34.9301412 L124.763395,20.9651412 C124.199151,17.5653213 121.321499,15.0404914 117.87277,14.9013912 L103.632145,14.3501412 L95.1796454,2.95764116 C93.8810268,1.2261498 91.9100479,0.168935505 89.8508954,0.0176411648 Z M57.6027704,5.71389116 C57.7772741,5.72978186 57.9880927,5.81838523 58.1540204,5.89764116 L72.2108954,12.6045162 L73.4052704,13.1557662 L74.5996454,12.6045162 L88.6565204,5.89764116 C89.3306654,5.57309162 90.1235246,5.74052168 90.5858954,6.35701616 L99.9571454,18.7601412 L100.78402,19.8626412 L102.07027,19.9545162 L117.597145,20.5057662 C118.376137,20.5371859 119.029425,21.103031 119.15902,21.8838912 L121.639645,37.2270162 L121.823395,38.6051412 L123.01777,39.2482662 L136.43152,46.9657662 C137.103037,47.3527231 137.41244,48.1519444 137.16652,48.8951412 L132.297145,63.5951412 L131.83777,64.8813912 L132.57277,66.0757662 L140.84152,79.1220162 L140.84152,79.2138912 C141.193371,79.8542673 141.193577,80.6311152 140.65777,81.1432662 L129.44902,91.8926412 L128.438395,92.9032662 L128.53027,94.1895162 L129.81652,109.716391 C129.880818,110.499895 129.379195,111.150247 128.622145,111.370141 L113.738395,115.688266 L112.452145,116.055766 L111.900895,117.342016 L105.837145,131.582641 C105.52769,132.308709 104.814728,132.655923 104.09152,132.501391 L103.999645,132.501391 L88.8402704,129.377641 L87.4621454,129.102016 L86.4515204,130.020766 L74.4158954,139.851391 C74.1106264,140.10085 73.7732026,140.218891 73.4052704,140.218891 C73.0373382,140.218891 72.6999144,140.10085 72.3946454,139.851391 L60.3590204,130.020766 L59.3483954,129.102016 L57.9702704,129.377641 L42.8108954,132.501391 L42.7190204,132.501391 C41.9999052,132.656888 41.2874903,132.315907 40.9733954,131.582641 L34.9096454,117.342016 L34.3583954,116.055766 L33.0721454,115.688266 L18.1883954,111.370141 C17.4384202,111.15167 16.9308713,110.499225 16.9940204,109.716391 L18.2802704,94.1895162 L18.3721454,92.9032662 L17.3615204,91.8926412 L6.15277042,81.1432662 C5.59166878,80.6069337 5.55561526,79.8656745 5.96902042,79.2138912 L14.2377704,66.0757662 L14.9727704,64.8813912 L14.5133954,63.5951412 L9.64402042,48.8951412 C9.39813646,48.1585683 9.70521946,47.3540402 10.3790204,46.9657662 L23.7927704,39.2482662 L24.9871454,38.6051412 L25.1708954,37.2270162 L27.6515204,21.8838912 C27.7769864,21.1070929 28.4344051,20.5371859 29.2133954,20.5057662 L44.7402704,19.9545162 L46.0265204,19.8626412 L46.8533954,18.7601412 L56.2246454,6.35701616 C56.5845279,5.9336888 57.0792623,5.66621906 57.6027704,5.71389116 Z M88.8402704,40.8101412 C88.1346704,40.8101412 87.7230704,41.1144312 87.3702704,41.7288912 L52.6415204,101.723266 C52.3769204,102.164266 52.6635704,102.642016 53.1927704,102.642016 L57.4190204,102.642016 C58.0364204,102.642016 58.3554104,102.337726 58.7052704,101.723266 L93.4340204,41.7288912 C93.6956804,41.2908312 93.5957204,40.8101412 93.0665204,40.8101412 L88.8402704,40.8101412 Z M56.2246454,41.0857662 C51.2090054,41.0857662 47.5266554,43.7479362 46.1183954,47.8845162 C45.5950754,49.5573762 45.3833954,50.5496262 45.3833954,56.8882662 C45.3833954,63.2269062 45.5921354,64.1272812 46.1183954,65.8001412 C47.5266554,69.9367212 51.2090054,72.5988912 56.2246454,72.5988912 C61.2402854,72.5988912 64.9226354,69.9367212 66.3308954,65.8001412 C66.8571554,64.1272812 67.0658954,63.2239662 67.0658954,56.8882662 C67.0658954,50.5496262 66.8600954,49.5573762 66.3308954,47.8845162 C64.9255754,43.7479362 61.2402854,41.0857662 56.2246454,41.0857662 Z M56.2246454,46.2307662 C58.5119654,46.2307662 60.2994854,47.2399212 61.0021454,49.2626412 C61.2638054,50.1446412 61.4615204,51.4316262 61.4615204,56.8882662 C61.4615204,62.3449062 61.2667454,63.5429562 61.0021454,64.4220162 C60.2994854,66.4476762 58.5119654,67.5457662 56.2246454,67.5457662 C53.9373254,67.5457662 52.1498054,66.4447362 51.4471454,64.4220162 C51.1854854,63.5400162 51.0796454,62.3449062 51.0796454,56.8882662 C51.0796454,51.4316262 51.1825454,50.1417012 51.4471454,49.2626412 C52.1498054,47.2369812 53.9373254,46.2307662 56.2246454,46.2307662 Z M89.8508954,70.9451412 C84.8323154,70.9451412 81.1529054,73.6073112 79.7446454,77.7438912 C79.2183854,79.4196912 79.0096454,80.3171262 79.0096454,86.6557662 C79.0096454,92.9885262 79.2183854,93.9866562 79.7446454,95.6595162 C81.1529054,99.7990362 84.8323154,102.458266 89.8508954,102.458266 C94.8665354,102.458266 98.5488854,99.7960962 99.9571454,95.6595162 C100.483405,93.9866562 100.692145,92.9885262 100.692145,86.6557662 C100.692145,80.3141862 100.486345,79.4167512 99.9571454,77.7438912 C98.5518254,73.6073112 94.8665354,70.9451412 89.8508954,70.9451412 Z M89.8508954,76.0901412 C92.1382154,76.0901412 93.9257354,77.0992962 94.6283954,79.1220162 C94.8900554,80.0040162 95.0877704,81.1991262 95.0877704,86.6557662 C95.0877704,92.1094662 94.8929954,93.4023312 94.6283954,94.2813912 C93.9257354,96.3070512 92.1382154,97.3132662 89.8508954,97.3132662 C87.5606354,97.3132662 85.7760554,96.3070512 85.0733954,94.2813912 C84.8117354,93.4023312 84.7058954,92.1094662 84.7058954,86.6557662 C84.7058954,81.1991262 84.8087954,80.0040162 85.0733954,79.1220162 C85.7760554,77.0963562 87.5635754,76.0901412 89.8508954,76.0901412 Z" id="Shape"></path>
                </g>
            </g>
        </g>
    </g>
</svg>