<?xml version="1.0" encoding="UTF-8"?>
<svg width="147px" height="140px" viewBox="0 0 147 140" version="1.1" xmlns="http://www.w3.org/2000/svg" xmlns:xlink="http://www.w3.org/1999/xlink">
    <!-- Generator: sketchtool 42 (36781) - http://www.bohemiancoding.com/sketch -->
    <title>948F2B83-3E2B-4752-A37E-BD14513CFB2F</title>
    <desc>Created with sketchtool.</desc>
    <defs></defs>
    <g id="Promotions" stroke="none" stroke-width="1" fill="none" fill-rule="evenodd">
        <g id="Estetica---Promotions---Desktop" transform="translate(-300.000000, -898.000000)">
            <g id="Promo-banner" transform="translate(250.000000, 832.000000)">
                <g id="icon" transform="translate(50.000000, 66.000000)">
                    <path d="M45.6699324,3.52629006 C31.9589913,3.7179821 20.5610347,8.06646538 12.5956474,15.6346118 C4.44677367,23.3770939 0,34.4186394 0,47.1844641 C0,56.5840471 3.5562324,63.9112448 7.45456683,70.8042184 C11.3529013,77.6971919 15.5704082,84.2325177 17.9080973,92.6333054 C20.5993601,102.542772 22.5037188,113.880503 25.4483488,122.989379 C26.9206638,127.543819 28.6570494,131.567305 31.1035375,134.671352 C33.5500255,137.775399 37.0123774,139.958084 41.1286446,139.958084 C45.1775321,139.958084 48.8994194,138.4208 51.325121,135.524051 C53.7508227,132.627301 54.8381928,128.634245 54.8381928,123.842078 C54.8381928,111.950298 57.2684433,96.2318331 59.7222193,82.6567304 C59.7271548,82.6302627 59.7172839,82.5980102 59.7222193,82.5714606 C60.1755776,80.576604 61.5863806,79.9280946 63.0639217,79.9280946 C64.5635159,79.9280946 65.8072983,80.5337371 66.14857,82.5714606 C68.6043148,95.8769003 71.0325966,111.927034 71.0325966,123.842078 C71.0325966,128.634245 72.1199667,132.627301 74.5456683,135.524051 C76.97137,138.4208 80.6932573,139.958084 84.7421448,139.958084 C88.8681348,139.958084 92.324024,137.796022 94.7672519,134.671352 C97.2104798,131.546682 98.9508604,127.473923 100.422441,122.90411 C103.365604,113.764484 105.27457,102.397448 107.962692,92.6333054 C110.300381,84.2325177 114.517888,77.6971919 118.416223,70.8042184 C122.314557,63.9112448 125.870789,56.5840471 125.870789,47.1844641 C126.015,34.4117523 121.650003,23.3826366 113.532196,15.6346118 C105.414389,7.88658688 93.6509848,3.52629006 79.5153795,3.52629006 C73.3521233,3.52629006 67.8819779,4.35186089 63.0639217,5.91384645 C58.2458655,4.35186089 52.7757201,3.52629006 46.6124639,3.52629006 C46.4099163,3.52629006 46.2142289,3.52450021 46.0126711,3.52629006 C45.8985366,3.51918076 45.784067,3.51918076 45.6699324,3.52629006 L45.6699324,3.52629006 Z M45.6951987,8.80299916 C45.8382908,8.81414511 45.9820402,8.81414511 46.1251323,8.80299916 C46.1535203,8.8050156 46.1827503,8.80092744 46.2111191,8.80299916 C57.0231561,9.59263273 66.4579417,14.4071112 73.1249645,22.0573574 C73.7407958,22.8888058 74.7748097,23.3047174 75.798711,23.132819 C76.8226122,22.9609206 77.6620282,22.2304867 77.9692673,21.244068 C78.2765065,20.2576492 77.9992454,19.1832347 77.2523274,18.4658539 C74.393449,15.1853603 71.0423798,12.3827412 67.3638538,10.085679 C70.9200777,9.22356682 75.0069539,8.80299916 79.573969,8.80299916 C92.6291288,8.80299916 102.854057,12.7420869 109.841297,19.4064858 C116.828537,26.0708846 120.720076,35.5675347 120.589638,47.1123702 C120.589638,55.198953 117.675007,61.4473564 113.882673,68.1483194 C110.090339,74.8492824 105.397291,81.8747038 102.790385,91.2365564 C99.9848323,101.42029 98.0655205,112.78427 95.30954,121.336776 C93.9315484,125.61303 92.2643909,129.164927 90.4942833,131.427191 C88.7241757,133.689455 87.1448265,134.676647 84.8191594,134.676647 C82.0033816,134.676647 80.1492519,133.892369 78.8000885,132.282311 C77.4509251,130.672253 76.5644336,127.938302 76.5644336,123.987648 C76.5644336,111.309071 74.0656373,95.1325537 71.5772034,81.6592136 C70.8190482,77.1354023 66.8564193,74.4762066 63.0645175,74.4762066 C59.2726157,74.4762066 55.2357493,77.0776427 54.2938714,81.5737016 L54.2938714,81.6592136 C51.8083872,95.3912159 49.3066412,111.309071 49.3066412,123.987648 C49.3066412,127.938302 48.334163,130.672253 46.9849996,132.282311 C45.6358362,133.892369 43.8676932,134.676647 41.0519154,134.676647 C38.7164912,134.676647 37.0576408,133.752893 35.2908048,131.512703 C33.5239688,129.272513 31.938789,125.679754 30.5615348,121.422288 C27.8070264,112.907355 25.8830892,101.548191 23.0806896,91.2365564 C20.4737839,81.8747038 15.7807359,74.8492824 11.9884018,68.1483194 C8.1960677,61.4473564 5.28143713,55.198953 5.28143713,47.1123702 C5.28143713,35.5606281 9.1768978,26.0764431 16.2017514,19.4064858 C23.0671601,12.8879184 33.0600064,8.97690427 45.6951987,8.80299916 Z" id="Shape" fill="#33B4B0"></path>
                    <circle id="Oval" fill="#FFFFFF" cx="113" cy="34" r="34"></circle>
                    <path d="M103.571648,8.80239521 C102.449481,8.80239521 101.518396,9.74291711 101.518396,10.876457 L101.518396,12.9505188 L95.358641,12.9505188 C94.8225142,12.9505188 94.275951,13.1489328 93.8888817,13.5399251 C93.5018124,13.9309173 93.3053892,14.48302 93.3053892,15.0245806 L93.3053892,56.5058165 C93.3053892,57.0473769 93.5018124,57.5994797 93.8888817,57.9904725 C94.275951,58.3814643 94.8225142,58.5798783 95.358641,58.5798783 L138.476929,58.5798783 C139.013056,58.5798783 139.559619,58.3814643 139.946689,57.9904725 C140.333758,57.5994797 140.530181,57.0473769 140.530181,56.5058165 L140.530181,15.0245806 C140.530181,14.48302 140.333758,13.9309173 139.946689,13.5399251 C139.559619,13.1489328 139.013056,12.9505188 138.476929,12.9505188 L132.317174,12.9505188 L132.317174,10.876457 C132.317174,9.74291711 131.386089,8.80239521 130.263922,8.80239521 L128.21067,8.80239521 C127.088503,8.80239521 126.157418,9.74291711 126.157418,10.876457 L126.157418,12.9505188 L107.678152,12.9505188 L107.678152,10.876457 C107.678152,9.74291711 106.747067,8.80239521 105.6249,8.80239521 L103.571648,8.80239521 Z M103.571648,10.876457 L105.6249,10.876457 L105.6249,17.0986424 L103.571648,17.0986424 L103.571648,10.876457 Z M128.21067,10.876457 L130.263922,10.876457 L130.263922,17.0986424 L128.21067,17.0986424 L128.21067,10.876457 Z M95.358641,15.0245806 L101.518396,15.0245806 L101.518396,17.0986424 C101.518396,18.2321823 102.449481,19.1727042 103.571648,19.1727042 L105.6249,19.1727042 C106.747067,19.1727042 107.678152,18.2321823 107.678152,17.0986424 L107.678152,15.0245806 L126.157418,15.0245806 L126.157418,17.0986424 C126.157418,18.2321823 127.088503,19.1727042 128.21067,19.1727042 L130.263922,19.1727042 C131.386089,19.1727042 132.317174,18.2321823 132.317174,17.0986424 L132.317174,15.0245806 L138.476929,15.0245806 L138.476929,22.2837969 L95.358641,22.2837969 L95.358641,15.0245806 Z M95.358641,24.3578587 L138.476929,24.3578587 L138.476929,56.5058165 L95.358641,56.5058165 L95.358641,24.3578587 Z M101.518396,28.5059823 L101.518396,29.5430132 L101.518396,52.357693 L122.050915,52.357693 L132.317174,52.357693 L132.317174,28.5059823 L101.518396,28.5059823 Z M103.571648,30.5800441 L108.704778,30.5800441 L108.704778,35.7651986 L103.571648,35.7651986 L103.571648,30.5800441 Z M110.75803,30.5800441 L115.891159,30.5800441 L115.891159,35.7651986 L110.75803,35.7651986 L110.75803,30.5800441 Z M117.944411,30.5800441 L123.077541,30.5800441 L123.077541,35.7651986 L117.944411,35.7651986 L117.944411,30.5800441 Z M125.130792,30.5800441 L130.263922,30.5800441 L130.263922,35.7651986 L125.130792,35.7651986 L125.130792,30.5800441 Z M103.571648,37.8392604 L108.704778,37.8392604 L108.704778,43.0244149 L103.571648,43.0244149 L103.571648,37.8392604 Z M110.75803,37.8392604 L115.891159,37.8392604 L115.891159,43.0244149 L110.75803,43.0244149 L110.75803,37.8392604 Z M117.944411,37.8392604 L123.077541,37.8392604 L123.077541,43.0244149 L117.944411,43.0244149 L117.944411,37.8392604 Z M125.130792,37.8392604 L130.263922,37.8392604 L130.263922,43.0244149 L125.130792,43.0244149 L125.130792,37.8392604 Z M103.571648,45.0984767 L108.704778,45.0984767 L108.704778,50.2836312 L103.571648,50.2836312 L103.571648,45.0984767 Z M110.75803,45.0984767 L115.891159,45.0984767 L115.891159,50.2836312 L110.75803,50.2836312 L110.75803,45.0984767 Z M117.944411,45.0984767 L123.077541,45.0984767 L123.077541,50.2836312 L122.050915,50.2836312 L117.944411,50.2836312 L117.944411,45.0984767 Z M125.130792,45.0984767 L130.263922,45.0984767 L130.263922,50.2836312 L125.130792,50.2836312 L125.130792,45.0984767 Z" id="Shape" fill="#33B4B0"></path>
                </g>
            </g>
        </g>
    </g>
</svg>