<?xml version="1.0" encoding="UTF-8"?>
<svg width="187px" height="82px" viewBox="0 0 187 82" version="1.1" xmlns="http://www.w3.org/2000/svg" xmlns:xlink="http://www.w3.org/1999/xlink">
    <!-- Generator: sketchtool 42 (36781) - http://www.bohemiancoding.com/sketch -->
    <title>2D91EEC3-CC15-461A-80D9-FCC5D692122A</title>
    <desc>Created with sketchtool.</desc>
    <defs></defs>
    <g id="Home" stroke="none" stroke-width="1" fill="none" fill-rule="evenodd">
        <g id="Estetica---Home---Desktop" transform="translate(-250.000000, -31.000000)" fill="#33B4B0">
            <g id="1.-Home">
                <g id="logo" transform="translate(250.000000, 31.000000)">
                    <path d="M58.4810559,77.1258741 C58.4810559,79.5342657 56.6226708,81.4265734 54.1835404,81.4265734 L52.5574534,81.4265734 C52.3832298,81.4265734 52.2090062,81.2545455 52.2090062,81.0825175 L52.2090062,73.3986014 C52.2090062,73.2265734 52.3832298,73.0545455 52.5574534,73.0545455 L54.1835404,73.0545455 C56.6226708,73.0545455 58.4810559,74.7174825 58.4810559,77.1258741 Z M57.726087,77.1258741 C57.726087,79.0755245 56.2161491,80.6811189 54.1835404,80.7384615 L53.1381988,80.7384615 C53.0220497,80.7384615 52.9639752,80.6811189 52.9639752,80.5664336 L52.9639752,73.972028 C52.9639752,73.8573427 53.0220497,73.8 53.1381988,73.8 L54.1835404,73.8 C56.2161491,73.8 57.726087,75.1188811 57.726087,77.1258741 Z M64.9273292,81.0251748 C64.9273292,81.2545455 64.7531056,81.4265734 64.578882,81.4265734 L60.3975155,81.4265734 C60.2232919,81.4265734 60.0490683,81.2545455 60.0490683,81.0825175 L60.0490683,73.3986014 C60.0490683,73.2265734 60.2232919,73.0545455 60.3975155,73.0545455 L64.3465839,73.0545455 C64.5208075,73.0545455 64.6950311,73.2265734 64.6950311,73.3986014 C64.6950311,73.5706294 64.5208075,73.7426573 64.3465839,73.7426573 L60.9201863,73.7426573 C60.8040373,73.7426573 60.7459627,73.8 60.7459627,73.8573427 L60.7459627,76.5524476 C60.7459627,76.6671329 60.7459627,76.7244755 60.8621118,76.7244755 L63.8819876,76.7244755 C64.0562112,76.7244755 64.2304348,76.8965035 64.2304348,77.0685315 C64.2304348,77.2405594 64.0562112,77.4125874 63.8819876,77.4125874 L60.9201863,77.4125874 C60.8040373,77.4125874 60.7459627,77.4125874 60.7459627,77.5272727 L60.7459627,80.4517483 C60.7459627,80.5664336 60.7459627,80.5664336 60.8621118,80.5664336 L64.5208075,80.5664336 C64.7531056,80.6811189 64.9273292,80.8531469 64.9273292,81.0251748 Z M72.4770186,73.3986014 L72.4770186,81.0251748 C72.4770186,81.1972028 72.3608696,81.3118881 72.2447205,81.3692308 C72.0704969,81.4265734 71.8962733,81.3692308 71.7801242,81.2545455 C71.7801242,81.2545455 67.5987578,75.2909091 67.4245342,75.0041958 C67.2503106,74.7174825 67.1341615,74.7748252 67.1341615,75.1188811 L67.1341615,81.0251748 C67.1341615,81.1972028 66.9599379,81.3692308 66.7857143,81.3692308 L66.7276398,81.3692308 C66.5534161,81.3692308 66.3791925,81.1972028 66.3791925,81.0251748 L66.3791925,73.3986014 C66.3791925,73.2839161 66.4953416,73.1118881 66.6114907,73.0545455 C66.7857143,72.9972028 66.9599379,72.9972028 67.076087,73.1692308 C67.076087,73.1692308 71.2574534,79.1902098 71.4897516,79.4769231 C71.6639752,79.7636364 71.7220497,79.648951 71.7220497,79.3622378 L71.7220497,73.3986014 C71.7220497,73.2265734 71.8962733,73.0545455 72.0704969,73.0545455 L72.1285714,73.0545455 C72.302795,73.0545455 72.4770186,73.2265734 72.4770186,73.3986014 Z M78.9813665,73.3986014 C78.9813665,73.627972 78.8071429,73.8 78.6329193,73.8 L76.8906832,73.8 C76.7745342,73.8 76.7164596,73.8573427 76.7164596,73.9146853 L76.7164596,81.0825175 C76.7164596,81.2545455 76.542236,81.4265734 76.3680124,81.4265734 C76.1937888,81.4265734 76.0195652,81.2545455 76.0195652,81.0825175 L76.0195652,73.972028 C76.0195652,73.8573427 76.0195652,73.8 75.9034161,73.8 L74.1031056,73.8 C73.928882,73.8 73.7546584,73.627972 73.7546584,73.4559441 C73.7546584,73.2839161 73.928882,73.1118881 74.1031056,73.1118881 L78.6329193,73.1118881 C78.8071429,73.0545455 78.9813665,73.2265734 78.9813665,73.3986014 Z M86.4149068,80.9104895 C86.4729814,81.0825175 86.4149068,81.3118881 86.2406832,81.3692308 C86.0664596,81.4265734 85.8341615,81.3692308 85.776087,81.1972028 C85.776087,81.1972028 84.9049689,79.1902098 84.9049689,79.0755245 C84.8468944,78.9608392 84.7888199,78.9034965 84.6145963,78.9034965 L81.1301242,78.9034965 C81.0139752,78.9034965 80.8978261,78.9608392 80.8397516,79.0755245 C80.781677,79.1902098 79.9686335,81.1398601 79.9686335,81.1398601 C79.910559,81.3118881 79.6782609,81.4265734 79.5040373,81.3118881 C79.3298137,81.2545455 79.2136646,81.0251748 79.3298137,80.8531469 L82.5819876,73.2265734 C82.6400621,73.0545455 82.8142857,72.9972028 82.9304348,72.9972028 C83.1046584,72.9972028 83.2208075,73.0545455 83.278882,73.2265734 L86.4149068,80.9104895 Z M81.4204969,78.2153846 L84.2661491,78.2153846 C84.4403727,78.2153846 84.4403727,78.158042 84.3822981,78.0433566 C84.3242236,77.9286713 83.278882,75.3482517 82.9304348,74.6027972 C82.8723602,74.4307692 82.8142857,74.4307692 82.6981366,74.6027972 C82.3496894,75.3482517 81.3043478,77.986014 81.2462733,78.1006993 C81.2462733,78.158042 81.3043478,78.2153846 81.4204969,78.2153846 Z M92.2804348,81.0251748 C92.2804348,81.2545455 92.1062112,81.4265734 91.9319876,81.4265734 L88.0990683,81.4265734 C87.9248447,81.4265734 87.7506211,81.2545455 87.7506211,81.0825175 L87.7506211,73.3986014 C87.7506211,73.2265734 87.9248447,73.0545455 88.0990683,73.0545455 L88.1571429,73.0545455 C88.3313665,73.0545455 88.5055901,73.2265734 88.5055901,73.3986014 L88.5055901,80.5090909 C88.5055901,80.6237762 88.5055901,80.6237762 88.6217391,80.6237762 L91.9319876,80.6237762 C92.1062112,80.6811189 92.2804348,80.8531469 92.2804348,81.0251748 Z M105.753727,73.972028 C105.811801,73.972028 105.869876,74.0867133 105.869876,74.2013986 L105.869876,74.9468531 C105.869876,75.0615385 105.811801,75.1188811 105.695652,75.0041958 C105.056832,74.1440559 104.069565,73.627972 102.908075,73.627972 C100.875466,73.627972 99.2493789,75.2909091 99.2493789,77.2405594 C99.2493789,79.2475524 100.875466,80.9104895 102.908075,80.9104895 C104.069565,80.9104895 105.056832,80.3370629 105.695652,79.5342657 C105.753727,79.4195804 105.869876,79.4769231 105.869876,79.5916084 L105.869876,80.3370629 C105.869876,80.4517483 105.811801,80.5664336 105.753727,80.5664336 C104.998758,81.1972028 104.011491,81.5986014 102.966149,81.5986014 C100.527019,81.5986014 98.5524845,79.648951 98.5524845,77.2405594 C98.5524845,74.8321678 100.527019,72.9398601 102.966149,72.9398601 C104.069565,72.9398601 105.056832,73.3412587 105.753727,73.972028 Z M111.909627,81.0251748 C111.909627,81.2545455 111.735404,81.4265734 111.56118,81.4265734 L107.728261,81.4265734 C107.554037,81.4265734 107.379814,81.2545455 107.379814,81.0825175 L107.379814,73.3986014 C107.379814,73.2265734 107.554037,73.0545455 107.728261,73.0545455 L107.786335,73.0545455 C107.960559,73.0545455 108.134783,73.2265734 108.134783,73.3986014 L108.134783,80.5090909 C108.134783,80.6237762 108.134783,80.6237762 108.250932,80.6237762 L111.56118,80.6237762 C111.735404,80.6811189 111.909627,80.8531469 111.909627,81.0251748 Z M113.884161,73.3986014 L113.884161,81.0825175 C113.884161,81.2545455 113.709938,81.4265734 113.535714,81.4265734 C113.361491,81.4265734 113.187267,81.2545455 113.187267,81.0825175 L113.187267,73.3986014 C113.187267,73.2265734 113.361491,73.0545455 113.535714,73.0545455 C113.768012,73.0545455 113.884161,73.2265734 113.884161,73.3986014 Z M121.724224,73.3986014 L121.724224,81.0251748 C121.724224,81.1972028 121.608075,81.3118881 121.491925,81.3692308 C121.317702,81.4265734 121.143478,81.3692308 121.027329,81.2545455 C121.027329,81.2545455 116.845963,75.2909091 116.671739,75.0041958 C116.497516,74.7174825 116.381366,74.7748252 116.381366,75.1188811 L116.381366,81.0251748 C116.381366,81.1972028 116.207143,81.3692308 116.032919,81.3692308 L115.974845,81.3692308 C115.800621,81.3692308 115.626398,81.1972028 115.626398,81.0251748 L115.626398,73.3986014 C115.626398,73.2839161 115.742547,73.1118881 115.858696,73.0545455 C116.032919,72.9972028 116.207143,72.9972028 116.323292,73.1692308 C116.323292,73.1692308 120.504658,79.1902098 120.736957,79.4769231 C120.91118,79.7636364 120.969255,79.648951 120.969255,79.3622378 L120.969255,73.3986014 C120.969255,73.2265734 121.143478,73.0545455 121.317702,73.0545455 L121.375776,73.0545455 C121.55,73.0545455 121.724224,73.2265734 121.724224,73.3986014 Z M124.163354,73.3986014 L124.163354,81.0825175 C124.163354,81.2545455 123.98913,81.4265734 123.814907,81.4265734 C123.640683,81.4265734 123.46646,81.2545455 123.46646,81.0825175 L123.46646,73.3986014 C123.46646,73.2265734 123.640683,73.0545455 123.814907,73.0545455 C123.98913,73.0545455 124.163354,73.2265734 124.163354,73.3986014 Z M132.932609,73.972028 C132.990683,73.972028 133.048758,74.0867133 133.048758,74.2013986 L133.048758,74.9468531 C133.048758,75.0615385 132.990683,75.1188811 132.874534,75.0041958 C132.235714,74.1440559 131.248447,73.627972 130.086957,73.627972 C128.054348,73.627972 126.428261,75.2909091 126.428261,77.2405594 C126.428261,79.2475524 128.054348,80.9104895 130.086957,80.9104895 C131.248447,80.9104895 132.235714,80.3370629 132.874534,79.5342657 C132.932609,79.4195804 133.048758,79.4769231 133.048758,79.5916084 L133.048758,80.3370629 C133.048758,80.4517483 132.990683,80.5664336 132.932609,80.5664336 C132.17764,81.1972028 131.190373,81.5986014 130.145031,81.5986014 C127.705901,81.5986014 125.731366,79.648951 125.731366,77.2405594 C125.731366,74.8321678 127.705901,72.9398601 130.145031,72.9398601 C131.190373,72.9398601 132.17764,73.3412587 132.932609,73.972028 Z" id="Combined-Shape"></path>
                    <path d="M136.479998,51.4685868 C136.140478,50.1610244 135.952484,48.7164065 135.952484,47.1356643 C135.836335,37.7888112 141.411491,26.951049 148.612733,26.951049 C151.632609,26.951049 153.839441,29.2447552 154.245963,34.2909091 C154.304037,34.634965 154.420186,35.0937063 154.420186,35.4951049 C154.420186,37.8461538 152.445652,39.6237762 149.948447,39.6237762 C148.380435,39.6237762 147.799689,39.0503497 147.799689,38.648951 C147.799689,38.4769231 147.857764,38.4195804 148.031988,38.4195804 C148.612733,38.3622378 150.006522,35.5524476 150.006522,33.8321678 C150.006522,33.2587413 149.832298,32.8 149.483851,32.627972 C145.418634,32.9146853 141.121118,41.7454545 141.121118,48.6839161 C141.121118,54.3034965 144.257143,57.2853147 147.16087,57.2853147 C149.832298,57.2853147 152.387578,54.8195804 152.387578,49.9454545 C152.387578,48.3972028 152.097205,46.6769231 151.51646,44.841958 C151.51646,44.7846154 151.51646,44.3832168 152.387578,44.3832168 C154.536335,44.3832168 156.220497,47.6517483 156.220497,51.206993 C156.220497,57.572028 152.097205,60.7258741 147.509317,60.7258741 C143.471506,60.7258741 139.084198,58.2161117 137.073488,53.2662009 C135.833,57.0570097 132.858294,60.2097902 129.564286,60.2097902 C125.150621,60.2097902 123.814907,54.5328671 123.814907,48.0531469 C123.814907,41.3440559 125.208696,33.7174825 126.021739,30.3342657 C126.021739,30.3342657 126.370186,29.3020979 126.950932,29.3020979 C128.286646,29.3020979 129.62236,29.2447552 131.713043,28.786014 C132.642236,28.786014 132.642236,29.4167832 132.642236,29.4167832 C130.609627,40.6559441 129.506211,45.1286713 129.506211,52.8699301 C129.506211,55.5076923 130.203106,56.4251748 131.248447,56.4251748 C132.990683,56.4251748 135.487888,53.6153846 136.359006,51.6083916 C136.394912,51.5611208 136.435751,51.5138499 136.479998,51.4685868 Z M95.8560337,27.3949022 C96.4444249,27.2542407 97.0533329,27.1804196 97.6813665,27.1804196 C101.049689,27.1804196 102.908075,29.6461538 102.908075,33.0293706 C102.908075,37.6167832 99.481677,43.8097902 91.5835404,48.2825175 C92.0481366,54.4181818 94.2549689,56.7692308 96.7521739,56.7692308 C99.7139752,56.8265734 102.733851,53.3286713 102.733851,48.5118881 C102.733851,47.2503497 102.501553,45.9314685 102.036957,44.4979021 C102.036957,44.4405594 102.036957,44.0391608 102.908075,44.0391608 C105.695652,44.0391608 106.276398,47.0783217 106.276398,49.6587413 C106.276398,54.9342657 102.153106,60.0951049 96.6360248,60.0951049 C88.9121118,60.0951049 85.7180124,53.386014 85.7180124,45.9888112 C85.7180124,40.6733612 87.3789221,35.0339648 90.2499243,31.3323927 C87.6786246,31.882852 84.6505139,32.4642822 81.7108696,32.9146853 C80.6074534,38.7062937 79.5621118,45.9314685 79.5621118,53.7874126 C79.5621118,55.6797203 80.4332298,56.6545455 81.4785714,56.6545455 C82.6400621,56.6545455 84.15,55.4503497 84.9049689,52.8125874 C84.9630435,52.6405594 85.1953416,52.4685315 85.4857143,52.4685315 C85.776087,52.4685315 85.776087,52.7552448 85.776087,52.9272727 C84.9049689,57.5146853 82.8142857,59.4643357 80.665528,59.4643357 C76.8906832,59.4643357 75.671118,54.2461538 75.671118,47.4797203 C75.671118,43.351049 76.2518634,37.9608392 76.7745342,33.4881119 C75.3807453,33.6601399 73.9869565,33.7174825 72.8835404,33.7174825 C69.6313665,33.7174825 68.063354,32.6853147 68.063354,29.4167832 C68.063354,28.8433566 68.2375776,27.9832168 68.6440994,27.9832168 C68.7602484,27.9832168 68.8763975,28.0405594 68.9925466,28.2125874 C70.9090062,29.0153846 73.6965839,29.3020979 76.7745342,29.3020979 L77.413354,29.3020979 C78.3425466,23.5104895 79.1555901,19.5538462 79.1555901,18.579021 C79.2717391,18.579021 79.5040373,18.2923077 79.8524845,18.2923077 C79.910559,18.2923077 80.0267081,18.2923077 80.0847826,18.3496503 C81.4204969,19.2671329 84.3242236,19.1524476 84.3242236,20.4713287 C83.7434783,23.3958042 83.2208075,25.7468531 82.523913,29.1300699 C88.2506782,28.620647 93.7941077,27.6134047 95.8560337,27.3949022 Z M67.5406832,24.1986014 C67.5406832,24.2559441 66.4372671,29.0727273 66.4372671,34.7496503 C66.4372671,40.0825175 71.8381988,46.5048951 71.8381988,52.5832168 C71.8381988,58.0307692 68.063354,60.7832168 64.6369565,60.7832168 C61.7913043,60.7832168 59.1198758,58.8335664 59.1198758,54.9916084 C59.1198758,52.8699301 59.8167702,50.9776224 60.2232919,50.9776224 C60.2813665,50.9776224 60.3975155,50.9776224 60.4555901,51.1496503 C61.5590062,53.7300699 61.5590062,56.5398601 63.3593168,56.5398601 C65.7403727,56.5398601 66.6695652,54.9342657 66.6695652,52.6405594 C66.6695652,49.2573427 63.5335404,40.827972 62.3720497,37.3300699 C54.5319876,51.4363636 31.7086957,64.0517483 16.0285714,64.0517483 C6.9689441,64.0517483 0.232298137,59.8083916 0.232298137,49.2573427 C0.232298137,41.9174825 5.63322981,33.6601399 20.5583851,29.0727273 C15.5639752,27.5818182 10.8018634,23.6825175 10.8018634,19.1524476 C10.8018634,7.51188811 43.8462733,0.229370629 54.2416149,0.229370629 C54.7062112,0.229370629 55.0546584,0.516083916 55.1127329,0.917482517 C55.6354037,3.38321678 57.6099379,9.0027972 57.6099379,9.86293706 C57.6099379,10.6657343 52.9059006,12.9020979 49.1310559,12.9020979 C46.8661491,12.9020979 44.9496894,12.0993007 44.6593168,9.63356643 C44.6593168,9.46153846 46.6919255,9.4041958 46.6919255,9.17482517 C46.6919255,8.42937063 44.0204969,8.14265734 43.265528,8.14265734 C33.9736025,8.14265734 15.4478261,15.9986014 15.4478261,20.4713287 C15.4478261,22.5356643 23.1717391,23.1090909 30.4891304,23.1090909 C34.6124224,23.1090909 38.5034161,22.9370629 41.0006211,22.6503497 C41.5232919,22.6503497 42.2782609,22.7076923 42.5686335,23.2237762 C43.5559006,24.9440559 45.3562112,28.6713287 45.5885093,28.6713287 C45.3562112,29.4167832 37.5742236,27.9258741 26.4819876,31.1944056 C15.7962733,34.3482517 5.34285714,39.7958042 5.34285714,47.2503497 C5.34285714,53.558042 11.4987578,56.4251748 19.8034161,56.4251748 C34.0897516,56.4251748 54.9385093,47.8237762 61.9074534,33.5454545 L61.9074534,32.1118881 C61.9074534,27.0657343 62.1978261,23.8545455 67.0180124,23.8545455 C67.192236,23.8545455 67.5406832,23.9118881 67.5406832,24.1986014 Z M97.4490683,31.5384615 C94.1388199,31.5384615 91.6996894,38.648951 91.5254658,45.2433566 C94.5453416,43.2363636 98.5524845,36.5846154 98.5524845,32.972028 C98.610559,32.2839161 98.3201863,31.5384615 97.4490683,31.5384615 Z M114.75528,9.86293706 C114.813354,9.86293706 114.987578,9.86293706 115.045652,9.92027972 C116.671739,11.0097902 120.214286,10.8951049 120.214286,12.5006993 C119.517391,16.0559441 118.878571,18.9230769 118.065528,22.9944056 C125.90559,22.3062937 133.513354,20.8727273 135.023292,20.8727273 C135.89441,20.8727273 137.17205,20.8727273 137.17205,21.4461538 C137.17205,21.9622378 136.300932,21.9622378 136.068634,22.3062937 C135.545963,23.1090909 135.371739,23.7398601 135.371739,23.7398601 C134.036025,24.3132867 125.26677,26.3776224 117.078261,27.6391608 C115.742547,34.6923077 114.464907,43.4657343 114.464907,52.9846154 C114.464907,55.2783217 115.510248,56.4825175 116.787888,56.4825175 C118.239752,56.4825175 119.981988,54.9916084 120.969255,51.8377622 C121.027329,51.6083916 121.317702,51.379021 121.666149,51.379021 C122.014596,51.379021 122.014596,51.7230769 122.014596,51.9524476 C120.969255,57.5146853 118.413975,59.9230769 115.800621,59.9230769 C111.212733,59.9230769 109.76087,53.558042 109.76087,45.358042 C109.76087,40.3118881 110.457764,33.7174825 111.096584,28.3272727 C109.354348,28.5566434 107.728261,28.613986 106.392547,28.613986 C102.443478,28.613986 100.527019,27.3524476 100.527019,23.3384615 C100.527019,22.6503497 100.759317,21.5608392 101.223913,21.5608392 C101.398137,21.5608392 101.514286,21.6181818 101.688509,21.8475524 C104.011491,22.8223776 107.379814,23.1664336 111.154658,23.1664336 L111.909627,23.1664336 C113.013043,16.1132867 114.000311,11.3538462 114.000311,10.1496503 C114.11646,10.1496503 114.406832,9.86293706 114.75528,9.86293706 Z M136.707453,11.9846154 C136.707453,14.9090909 134.442547,18.6363636 131.713043,18.6363636 C129.215839,18.6363636 128.112422,16.8013986 128.112422,14.6797203 C128.112422,11.8125874 130.145031,8.42937063 133.281056,8.42937063 C135.778261,8.42937063 136.707453,10.034965 136.707453,11.9846154 Z M176.314286,33.6601399 C177.65,34.0041958 179.508385,34.634965 179.508385,35.4951049 C179.508385,37.6167832 178.463043,44.3832168 178.463043,49.6013986 C178.463043,53.386014 178.985714,56.3104895 180.844099,56.3104895 C182.470186,56.3104895 184.502795,54.8195804 185.257764,53.041958 C186.070807,52.8125874 186.245031,51.8377622 186.477329,51.8377622 C186.767702,51.8377622 186.767702,52.2965035 186.767702,52.5258741 C186.767702,56.4251748 183.225155,59.9804196 179.798758,59.9804196 C176.895031,59.9804196 174.049379,57.4573427 173.29441,50.8055944 C171.261801,55.9664336 168.416149,59.9804196 165.512422,59.9804196 C160.343789,59.9804196 158.078882,54.5902098 158.078882,48.2251748 C158.078882,38.993007 162.724845,27.6391608 169.868012,27.6391608 C173.817081,27.7538462 175.791615,30.2769231 176.314286,33.6601399 Z M173.759006,35.8965035 C172.481366,34.2909091 171.261801,33.5454545 170.158385,33.5454545 C165.512422,33.5454545 162.434472,45.4727273 162.434472,51.3216783 C162.434472,54.3608392 163.189441,56.4825175 164.699379,56.4825175 C170.85528,56.4251748 173.120186,41.7454545 173.759006,35.8965035 Z" id="Combined-Shape"></path>
                    <rect id="Rectangle-path" x="0.232298137" y="76.9538462" width="46.3434783" height="0.745454545"></rect>
                    <rect id="Rectangle-path" x="139.030435" y="77.0685315" width="47.7372671" height="0.745454545"></rect>
                </g>
            </g>
        </g>
    </g>
</svg>