<?xml version="1.0" encoding="UTF-8"?>
<svg width="177px" height="94px" viewBox="0 0 177 94" version="1.1" xmlns="http://www.w3.org/2000/svg" xmlns:xlink="http://www.w3.org/1999/xlink">
    <!-- Generator: sketchtool 42 (36781) - http://www.bohemiancoding.com/sketch -->
    <title>970DD937-7B18-4B65-8BFD-0429FF6BBD3F</title>
    <desc>Created with sketchtool.</desc>
    <defs></defs>
    <g id="Home" stroke="none" stroke-width="1" fill="none" fill-rule="evenodd">
        <g id="Estetica---Home---Desktop" transform="translate(-1013.000000, -4678.000000)" fill="#FFFFFF">
            <g id="6.-Promo" transform="translate(0.000000, 4546.000000)">
                <g id="Group-43" transform="translate(1013.000000, 132.000000)">
                    <g id="noun_471694_cc">
                        <g id="Group">
                            <g transform="translate(0.000000, 0.427313)" id="Shape">
                                <path d="M3.48712367,0 C1.59559008,0.179694915 -0.00816459421,1.95635593 3.127536e-05,3.86440678 L3.127536e-05,88.8814139 C0.000223666664,90.9048173 1.83319334,92.7456275 3.84785736,92.7458207 L173.152213,92.7458207 C175.166877,92.7456275 176.999846,90.9048173 177.000039,88.8814139 L177.000039,3.86440678 C176.999846,1.84100339 175.166877,0.000193220339 173.152213,0 L3.48712367,0 L3.48712367,0 Z M7.69568345,7.72881356 L56.5149844,7.72881356 C45.4802388,16.9624271 38.478292,30.8549695 38.478292,46.3729393 C38.478292,61.8918173 45.4788343,75.8003969 56.5149844,85.0170071 L7.69568345,85.0170071 L7.69568345,7.72881356 L7.69568345,7.72881356 Z M70.7639654,7.72881356 L106.236112,7.72881356 C120.735933,14.4669864 130.826126,29.2292136 130.826126,46.3729393 C130.826126,63.5836546 120.646913,78.3172851 106.055745,85.0170071 L70.9443323,85.0170071 C56.3531641,78.3172851 46.1739441,63.5836546 46.1739441,46.3729393 C46.1739441,29.2292136 56.2641254,14.4669864 70.7639654,7.72881356 Z M120.485093,7.72881356 L169.304387,7.72881356 L169.304387,85.0170071 L120.485093,85.0170071 C131.521236,75.8003969 138.521778,61.8918173 138.521778,46.3729393 C138.521778,30.8549695 131.519831,16.9624271 120.485093,7.72881356 Z M68.9001746,17.3898305 C66.8854529,17.4845085 65.3186181,19.4116881 65.4130823,21.4352847 C65.507354,23.4588814 67.2461866,25.2139017 69.2609083,25.1186441 L73.1087344,25.1186441 L73.1087344,44.4407359 L69.2609083,44.4407359 C67.2282942,44.4117529 65.5333268,46.2633834 65.5333268,48.3051427 C65.5333268,50.3470953 67.2282942,52.1985325 69.2609083,52.1695495 L73.1087344,52.1695495 L73.1087344,56.0339563 L69.2609083,56.0339563 C67.1361388,56.0339563 65.4130823,57.7642444 65.4130823,59.8983631 C65.4130823,62.0326749 67.1361388,63.7627698 69.2609083,63.7627698 L73.1087344,63.7627698 L73.1087344,71.4915834 C73.0798757,73.5333427 74.9235616,75.3559902 76.9565605,75.3559902 C78.989367,75.3559902 80.8330529,73.5333427 80.8043866,71.4915834 L80.8043866,63.7627698 L96.195691,63.7627698 C98.3206529,63.7627698 100.043517,62.0326749 100.043517,59.8983631 C100.043517,57.7642444 98.3206529,56.0339563 96.195691,56.0339563 L80.8043866,56.0339563 L80.8043866,52.1695495 L94.2717779,52.1695495 C103.564855,52.1695495 111.586995,44.4596715 111.586995,34.779661 C111.586995,25.0999017 103.564855,17.3898305 94.2717779,17.3898305 L68.9001746,17.3898305 Z M80.8043866,25.1186441 L94.2717779,25.1186441 C99.2458627,25.1186441 103.891343,29.4734441 103.891343,34.779661 C103.891343,40.0860712 99.2458627,44.4407359 94.2717779,44.4407359 L80.8043866,44.4407359 L80.8043866,25.1186441 Z M23.2072322,40.5762712 C20.0651743,40.5762712 17.435493,43.2172647 17.435493,46.3729393 C17.435493,49.5286139 20.0651743,52.1695495 23.2072322,52.1695495 C26.34929,52.1695495 28.9789713,49.5286139 28.9789713,46.3729393 C28.9789713,43.2172647 26.34929,40.5762712 23.2072322,40.5762712 Z M153.792838,40.5762712 C150.65078,40.5762712 148.021099,43.2172647 148.021099,46.3729393 C148.021099,49.5286139 150.65078,52.1695495 153.792838,52.1695495 C156.934896,52.1695495 159.564577,49.5286139 159.564577,46.3729393 C159.564577,43.2172647 156.934896,40.5762712 153.792838,40.5762712 Z M23.2072322,44.4407359 C24.2242126,44.4407359 25.1311452,45.3515766 25.1311452,46.3729393 C25.1311452,47.394302 24.2242126,48.3051427 23.2072322,48.3051427 C22.1902517,48.3051427 21.2833191,47.394302 21.2833191,46.3729393 C21.2833191,45.3515766 22.1902517,44.4407359 23.2072322,44.4407359 Z M153.792838,44.4407359 C154.809818,44.4407359 155.716751,45.3515766 155.716751,46.3729393 C155.716751,47.394302 154.809818,48.3051427 153.792838,48.3051427 C152.775857,48.3051427 151.868925,47.394302 151.868925,46.3729393 C151.868925,45.3515766 152.775857,44.4407359 153.792838,44.4407359 Z"></path>
                            </g>
                        </g>
                    </g>
                </g>
            </g>
        </g>
    </g>
</svg>