<?xml version="1.0" encoding="UTF-8"?>
<svg width="60px" height="60px" viewBox="0 0 60 60" version="1.1" xmlns="http://www.w3.org/2000/svg" xmlns:xlink="http://www.w3.org/1999/xlink">
    <!-- Generator: sketchtool 42 (36781) - http://www.bohemiancoding.com/sketch -->
    <title>8621C015-ECAC-498D-825F-DB52212BBF8A</title>
    <desc>Created with sketchtool.</desc>
    <defs>
        <circle id="path-1" cx="30" cy="30" r="30"></circle>
        <mask id="mask-2" maskContentUnits="userSpaceOnUse" maskUnits="objectBoundingBox" x="0" y="0" width="60" height="60" fill="white">
            <use xlink:href="#path-1"></use>
        </mask>
        <path d="M37.8822483,29 C37.1630746,24.4660215 33.2363037,21 28.5,21 C23.2532949,21 19,25.2532949 19,30.5 C19,35.7467051 23.2532949,40 28.5,40 C33.2363037,40 37.1630746,36.5339785 37.8822483,32 L44,32 L44,29 L37.8822483,29 Z" id="path-3"></path>
        <mask id="mask-4" maskContentUnits="userSpaceOnUse" maskUnits="objectBoundingBox" x="0" y="0" width="25" height="19" fill="white">
            <use xlink:href="#path-3"></use>
        </mask>
    </defs>
    <g id="Home" stroke="none" stroke-width="1" fill="none" fill-rule="evenodd">
        <g id="Estetica---Home---Desktop" transform="translate(-455.000000, -1623.000000)" stroke="#FFFFFF" stroke-width="6">
            <g id="2.-About" transform="translate(0.000000, 810.000000)">
                <g id="Group-10" transform="translate(250.000000, 318.000000)">
                    <g id="Group-15" transform="translate(0.000000, 350.000000)">
                        <g id="Group-11" transform="translate(205.000000, 145.000000)">
                            <use id="Oval" mask="url(#mask-2)" xlink:href="#path-1"></use>
                            <use id="Combined-Shape" mask="url(#mask-4)" transform="translate(31.500000, 30.500000) rotate(-315.000000) translate(-31.500000, -30.500000) " xlink:href="#path-3"></use>
                        </g>
                    </g>
                </g>
            </g>
        </g>
    </g>
</svg>