<?xml version="1.0" encoding="UTF-8"?>
<svg width="46px" height="50px" viewBox="0 0 46 50" version="1.1" xmlns="http://www.w3.org/2000/svg" xmlns:xlink="http://www.w3.org/1999/xlink">
    <!-- Generator: sketchtool 42 (36781) - http://www.bohemiancoding.com/sketch -->
    <title>D4BAE6CC-2BD1-4A83-8404-A0B02D59152F</title>
    <desc>Created with sketchtool.</desc>
    <defs></defs>
    <g id="Article" stroke="none" stroke-width="1" fill="none" fill-rule="evenodd" opacity="0.5">
        <g id="Estetica---Article---Desktop" transform="translate(-697.000000, -1397.000000)" fill="#000000">
            <g id="icons-text-block" transform="translate(329.000000, 1297.000000)">
                <g id="text-icon-block" transform="translate(280.000000, 100.000000)">
                    <g id="Group-3" transform="translate(88.000000, 0.000000)">
                        <path d="M30.8125,32.7187 C33.5605,33.3467 36.0325,34.2427 38.0625,35.3437 C41.8815,37.4147 44.0005,40.0667 44.0005,42.0937 L44.0005,47.9997 L24.5005,47.9997 L30.8125,32.7187 Z M15.1875,32.7187 L21.4995,47.9997 L2.0005,47.9997 L2.0005,42.0937 C2.0005,40.0667 4.1185,37.4147 7.9375,35.3437 C9.9675,34.2427 12.4395,33.3467 15.1875,32.7187 L15.1875,32.7187 Z M23.0005,31.8127 C25.0245,31.8127 26.9845,31.9697 28.8435,32.2817 L23.0005,46.3747 L17.1565,32.2817 C19.0155,31.9697 20.9755,31.8127 23.0005,31.8127 L23.0005,31.8127 Z M23.0005,29.8127 C16.7845,29.8127 11.1555,31.3397 7.0005,33.5937 C2.8445,35.8477 0.0005,38.8217 0.0005,42.0937 L0.0005,48.9997 L0.0005,49.9997 L1.0005,49.9997 L22.7815,49.9997 C22.9155,50.0277 23.0535,50.0277 23.1875,49.9997 L45.0005,49.9997 L46.0005,49.9997 L46.0005,48.9997 L46.0005,42.0937 C46.0005,38.8217 43.1565,35.8477 39.0005,33.5937 C36.6665,32.3277 33.8565,31.2907 30.7505,30.6247 C30.5795,30.5297 30.3825,30.4857 30.1875,30.4997 C27.9225,30.0527 25.5155,29.8127 23.0005,29.8127 L23.0005,29.8127 Z M15.9065,14.7497 C17.2845,14.6877 19.6955,14.9997 23.0005,14.9997 C26.7765,14.9997 29.3915,14.6067 30.6255,14.8127 C31.2415,14.9147 31.4195,15.0567 31.6245,15.4067 C31.8305,15.7557 31.9995,16.5157 31.9995,17.8127 C31.9995,22.7667 27.9545,26.8127 23.0005,26.8127 C18.0455,26.8127 14.0005,22.7667 14.0005,17.8127 C14.0005,16.5157 14.1705,15.7557 14.3755,15.4067 C14.5795,15.0567 14.7585,14.9147 15.3745,14.8127 C15.5295,14.7867 15.7095,14.7587 15.9065,14.7497 L15.9065,14.7497 Z M21.9995,3.9997 L21.9995,6.9997 L18.9995,6.9997 L18.9995,8.9997 L21.9995,8.9997 L21.9995,11.9997 L24.0005,11.9997 L24.0005,8.9997 L26.9995,8.9997 L26.9995,6.9997 L24.0005,6.9997 L24.0005,3.9997 L21.9995,3.9997 Z M23.0005,1.9997 C26.7035,1.9997 28.6675,2.5427 29.6255,2.9997 C30.1035,3.2287 30.3365,3.4247 30.4375,3.5317 L31.5315,12.9997 C31.3385,12.9377 31.1355,12.8767 30.9375,12.8437 C29.0205,12.5247 26.6235,12.9997 23.0005,12.9997 C21.1885,12.9997 19.6675,12.8897 18.3745,12.8127 C17.0825,12.7357 16.0205,12.6837 15.0625,12.8437 C14.8645,12.8767 14.6615,12.9377 14.4685,12.9997 L15.5625,3.5317 C15.6635,3.4247 15.8965,3.2287 16.3745,2.9997 C17.3315,2.5427 19.2965,1.9997 23.0005,1.9997 L23.0005,1.9997 Z M23.0005,-0.0003 C19.1035,-0.0003 16.8745,0.5447 15.5315,1.1877 C14.8595,1.5087 14.4115,1.8507 14.1255,2.1567 C13.8385,2.4617 13.6565,2.8437 13.6565,2.8437 C13.6245,2.9237 13.6035,3.0087 13.5935,3.0937 L12.0005,16.8747 C11.9825,17.0107 11.9935,17.1497 12.0315,17.2807 C12.0255,17.4577 12.0005,17.6247 12.0005,17.8127 C12.0005,23.8577 16.9545,28.8127 23.0005,28.8127 C29.0455,28.8127 34.0005,23.8577 34.0005,17.8127 C34.0005,17.6357 33.9735,17.4787 33.9685,17.3127 C34.0105,17.1707 34.0215,17.0217 34.0005,16.8747 L32.4065,3.0937 C32.3965,3.0087 32.3745,2.9237 32.3435,2.8437 C32.3435,2.8437 32.1625,2.4617 31.8745,2.1567 C31.5875,1.8507 31.1405,1.5087 30.4685,1.1877 C29.1255,0.5447 26.8965,-0.0003 23.0005,-0.0003 L23.0005,-0.0003 Z" id="Fill-1"></path>
                    </g>
                </g>
            </g>
        </g>
    </g>
</svg>