<?xml version="1.0" encoding="UTF-8"?>
<svg width="55px" height="51px" viewBox="0 0 55 51" version="1.1" xmlns="http://www.w3.org/2000/svg" xmlns:xlink="http://www.w3.org/1999/xlink">
    <!-- Generator: sketchtool 42 (36781) - http://www.bohemiancoding.com/sketch -->
    <title>BC7BB398-91D3-4C73-AB51-D7FC67B11456</title>
    <desc>Created with sketchtool.</desc>
    <defs></defs>
    <g id="Article" stroke="none" stroke-width="1" fill="none" fill-rule="evenodd" opacity="0.5">
        <g id="Estetica---Article---Desktop" transform="translate(-410.000000, -1397.000000)">
            <g id="icons-text-block" transform="translate(329.000000, 1297.000000)">
                <g id="text-icon-block" transform="translate(1.000000, 100.000000)">
                    <g id="Page-1" transform="translate(80.000000, 0.000000)">
                        <path d="M0.0001,17.0249 L0.0001,17.0249 C0.0001,16.5249 0.4001,16.1249 0.9001,16.1249 L18.8001,16.1249 C19.3001,16.1249 19.7001,16.5249 19.7001,17.0249 C19.7001,17.5249 19.3001,17.9249 18.8001,17.9249 L0.9001,17.9249 C0.4001,17.9249 0.0001,17.5249 0.0001,17.0249" id="Fill-1" fill="#000000"></path>
                        <path d="M20.6002,2.125 L20.8002,2.125 C24.7002,2.425 28.2002,4.125 30.6002,6.925 C30.9002,7.325 31.6002,7.425 31.9992,7.125 C32.4002,6.825 32.4992,6.125 32.2002,5.725 L32.1002,5.625 C31.1002,4.425 29.8002,3.425 28.4992,2.525 C29.8002,2.325 31.2002,2.125 32.9002,2.125 C37.6002,2.125 41.4002,3.525 43.9002,6.025 C46.4002,8.525 47.9002,11.925 47.8002,16.125 C47.8002,19.125 46.7002,21.325 45.4002,23.825 C44.1002,26.325 42.3002,28.825 41.4002,32.225 C40.4002,35.925 39.7002,40.125 38.7002,43.225 C38.2002,44.825 37.6002,46.125 36.9002,46.925 C36.2002,47.725 35.7002,48.125 34.8002,48.125 C33.8002,48.125 33.1002,47.825 32.6002,47.225 C32.1002,46.625 31.8002,45.625 31.8002,44.225 C31.8002,39.625 30.9002,33.725 29.9992,28.725 C29.7002,27.125 28.3002,26.125 26.9002,26.125 C25.5002,26.125 24.1002,27.125 23.7002,28.725 C22.8002,33.725 21.9002,39.525 21.9002,44.225 C21.9002,45.625 21.5002,46.625 21.1002,47.225 C20.7002,47.825 19.9002,48.125 18.9002,48.125 C18.1002,48.125 17.4002,47.825 16.8002,46.925 C16.2002,46.025 15.6002,44.825 15.1002,43.225 C14.1002,40.125 13.4002,35.925 12.4002,32.225 C11.5002,28.825 9.7002,26.225 8.4002,23.825 C7.1002,21.425 5.9002,19.125 5.9002,16.125 C5.9002,11.925 7.3002,8.425 9.9002,6.025 C12.4002,3.625 16.0002,2.225 20.6002,2.125 L20.6002,2.125 Z M20.6002,0.125 C15.6002,0.225 11.4002,1.825 8.5002,4.525 C5.5002,7.425 3.9002,11.425 3.9002,16.125 C3.9002,19.525 5.2002,22.225 6.6002,24.825 C8.0002,27.425 9.6002,29.725 10.4002,32.825 C11.4002,36.425 12.1002,40.625 13.2002,43.925 C13.7002,45.625 14.4002,47.025 15.3002,48.225 C16.2002,49.425 17.4002,50.125 18.9002,50.125 C20.4002,50.125 21.7002,49.525 22.6002,48.525 C23.5002,47.525 23.9002,46.025 23.9002,44.225 C23.9002,39.825 24.8002,34.125 25.7002,29.125 C25.9002,28.425 26.4002,28.125 26.9002,28.125 C27.4002,28.125 27.9002,28.325 27.9992,29.125 C28.9002,34.025 29.8002,39.925 29.8002,44.225 C29.8002,46.025 30.2002,47.425 31.1002,48.525 C31.9992,49.625 33.3002,50.125 34.8002,50.125 C36.3002,50.125 37.6002,49.325 38.4992,48.225 C39.4002,47.125 39.9992,45.625 40.6002,43.925 C41.7002,40.625 42.4002,36.425 43.4002,32.825 C44.3002,29.725 45.8002,27.325 47.2002,24.825 C48.6002,22.325 49.9002,19.625 49.9002,16.125 C49.9992,11.425 48.4002,7.425 45.4002,4.525 C42.4002,1.625 38.1002,0.125 32.9002,0.125 C30.7002,0.125 28.7002,0.425 26.9002,1.025 C25.1002,0.425 23.1002,0.125 20.9002,0.125 L20.6002,0.125 Z" id="Fill-3" fill="#000000"></path>
                        <path d="M20.6002,2.125 L20.8002,2.125 C24.7002,2.425 28.2002,4.125 30.6002,6.925 C30.9002,7.325 31.6002,7.425 31.9992,7.125 C32.4002,6.825 32.4992,6.125 32.2002,5.725 L32.1002,5.625 C31.1002,4.425 29.8002,3.425 28.4992,2.525 C29.8002,2.325 31.2002,2.125 32.9002,2.125 C37.6002,2.125 41.4002,3.525 43.9002,6.025 C46.4002,8.525 47.9002,11.925 47.8002,16.125 C47.8002,19.125 46.7002,21.325 45.4002,23.825 C44.1002,26.325 42.3002,28.825 41.4002,32.225 C40.4002,35.925 39.7002,40.125 38.7002,43.225 C38.2002,44.825 37.6002,46.125 36.9002,46.925 C36.2002,47.725 35.7002,48.125 34.8002,48.125 C33.8002,48.125 33.1002,47.825 32.6002,47.225 C32.1002,46.625 31.8002,45.625 31.8002,44.225 C31.8002,39.625 30.9002,33.725 29.9992,28.725 C29.7002,27.125 28.3002,26.125 26.9002,26.125 C25.5002,26.125 24.1002,27.125 23.7002,28.725 C22.8002,33.725 21.9002,39.525 21.9002,44.225 C21.9002,45.625 21.5002,46.625 21.1002,47.225 C20.7002,47.825 19.9002,48.125 18.9002,48.125 C18.1002,48.125 17.4002,47.825 16.8002,46.925 C16.2002,46.025 15.6002,44.825 15.1002,43.225 C14.1002,40.125 13.4002,35.925 12.4002,32.225 C11.5002,28.825 9.7002,26.225 8.4002,23.825 C7.1002,21.425 5.9002,19.125 5.9002,16.125 C5.9002,11.925 7.3002,8.425 9.9002,6.025 C12.4002,3.625 16.0002,2.225 20.6002,2.125 Z M20.6002,0.125 C15.6002,0.225 11.4002,1.825 8.5002,4.525 C5.5002,7.425 3.9002,11.425 3.9002,16.125 C3.9002,19.525 5.2002,22.225 6.6002,24.825 C8.0002,27.425 9.6002,29.725 10.4002,32.825 C11.4002,36.425 12.1002,40.625 13.2002,43.925 C13.7002,45.625 14.4002,47.025 15.3002,48.225 C16.2002,49.425 17.4002,50.125 18.9002,50.125 C20.4002,50.125 21.7002,49.525 22.6002,48.525 C23.5002,47.525 23.9002,46.025 23.9002,44.225 C23.9002,39.825 24.8002,34.125 25.7002,29.125 C25.9002,28.425 26.4002,28.125 26.9002,28.125 C27.4002,28.125 27.9002,28.325 27.9992,29.125 C28.9002,34.025 29.8002,39.925 29.8002,44.225 C29.8002,46.025 30.2002,47.425 31.1002,48.525 C31.9992,49.625 33.3002,50.125 34.8002,50.125 C36.3002,50.125 37.6002,49.325 38.4992,48.225 C39.4002,47.125 39.9992,45.625 40.6002,43.925 C41.7002,40.625 42.4002,36.425 43.4002,32.825 C44.3002,29.725 45.8002,27.325 47.2002,24.825 C48.6002,22.325 49.9002,19.625 49.9002,16.125 C49.9992,11.425 48.4002,7.425 45.4002,4.525 C42.4002,1.625 38.1002,0.125 32.9002,0.125 C30.7002,0.125 28.7002,0.425 26.9002,1.025 C25.1002,0.425 23.1002,0.125 20.9002,0.125 L20.6002,0.125 Z" id="Stroke-5" stroke="#000000" stroke-width="0.25"></path>
                        <path d="M26.9,20.8252 C28.4,20.8252 29.8,21.5252 30.4,21.8252 C32.1,21.7252 33.4,20.2252 33.4,18.5252 L33.4,15.4252 C33.4,13.7252 32,12.2252 30.3,12.1252 C29.7,12.4252 28.3,13.1252 26.9,13.1252 C25.5,13.1252 24.1,12.4252 23.5,12.1252 C21.8,12.2252 20.4,13.7252 20.4,15.4252 L20.4,18.5252 C20.4,20.2252 21.8,21.7252 23.4,21.8252 C24,21.5252 25.4,20.8252 26.9,20.8252 M30.1,23.8252 L29.8,23.8252 L29.5,23.6252 C29.5,23.6252 28.2,22.8252 26.9,22.8252 C25.5,22.8252 24.3,23.6252 24.3,23.6252 L24,23.8252 L23.7,23.8252 C20.8,23.8252 18.4,21.4252 18.4,18.5252 L18.4,15.4252 C18.4,12.5252 20.8,10.1252 23.7,10.1252 L24,10.1252 L24.2,10.2252 C24.6,10.5252 25.9,11.1252 26.9,11.1252 C27.9,11.1252 29.2,10.5252 29.6,10.2252 L29.8,10.1252 L30.1,10.1252 C33,10.1252 35.4,12.5252 35.4,15.4252 L35.4,18.5252 C35.4,21.4252 33,23.8252 30.1,23.8252" id="Fill-7" fill="#000000"></path>
                        <path d="M30.1002,22.8252 L30.1002,22.8252 C29.4992,22.8252 28.9992,22.3252 28.9992,21.7252 L28.9992,12.3252 C28.9992,11.7252 29.4992,11.2252 30.1002,11.2252 C30.7002,11.2252 31.2002,11.7252 31.2002,12.3252 L31.2002,21.7252 C31.2002,22.3252 30.7002,22.8252 30.1002,22.8252" id="Fill-9" fill="#000000"></path>
                        <path d="M23.6998,22.8252 L23.6998,22.8252 C23.0998,22.8252 22.5998,22.3252 22.5998,21.7252 L22.5998,12.3252 C22.5998,11.7252 23.0998,11.2252 23.6998,11.2252 C24.2998,11.2252 24.7998,11.7252 24.7998,12.3252 L24.7998,21.7252 C24.7998,22.3252 24.2998,22.8252 23.6998,22.8252" id="Fill-11" fill="#000000"></path>
                        <path d="M33.9996,17.0249 L33.9996,17.0249 C33.9996,16.5249 34.3996,16.1249 34.8996,16.1249 L53.8006,16.1249 C54.3006,16.1249 54.6996,16.5249 54.6996,17.0249 C54.6996,17.5249 54.3006,17.9249 53.8006,17.9249 L34.8996,17.9249 C34.3996,17.9249 33.9996,17.5249 33.9996,17.0249" id="Fill-13" fill="#000000"></path>
                    </g>
                </g>
            </g>
        </g>
    </g>
</svg>