<?xml version="1.0" encoding="UTF-8"?>
<svg width="143px" height="126px" viewBox="0 0 143 126" version="1.1" xmlns="http://www.w3.org/2000/svg" xmlns:xlink="http://www.w3.org/1999/xlink">
    <!-- Generator: sketchtool 42 (36781) - http://www.bohemiancoding.com/sketch -->
    <title>594902D8-42CF-4DCC-A363-EE5C9E3855BD</title>
    <desc>Created with sketchtool.</desc>
    <defs>
        <path d="M95.4289319,88.9883242 L84.5962994,88.9883242 L84.5962994,99 L81.0050463,99 L81.0050463,88.9883242 L75,88.9883242 L75,85.8873626 L81.0050463,85.8873626 L81.0050463,81.4869505 L75,81.4869505 L75,78.415522 L81.0050463,78.415522 L81.0050463,56 L95.6055509,56 C100.11917,56 103.646609,57.1468521 106.187973,59.4405907 C108.729337,61.7343292 110,64.8500261 110,68.7877747 C110,72.8042783 108.763679,75.9199752 106.291001,78.1349588 C103.818322,80.3499424 100.285978,81.4672618 95.6938604,81.4869505 L84.5962994,81.4869505 L84.5962994,85.8873626 L95.4289319,85.8873626 L95.4289319,88.9883242 Z M85,78 L96.1189189,78 C99.5675848,78 102.243234,77.1817105 104.145946,75.545107 C106.048658,73.9085035 107,71.5892097 107,68.587156 C107,65.6819427 106.073433,63.3771747 104.22027,61.6727829 C102.367108,59.9683911 99.8153316,59.0774724 96.5648649,59 L85,59 L85,78 Z" id="path-1"></path>
    </defs>
    <g id="Promotions" stroke="none" stroke-width="1" fill="none" fill-rule="evenodd">
        <g id="Estetica---Promotions---Desktop" transform="translate(-300.000000, -1789.000000)">
            <g id="Promo-banner" transform="translate(250.000000, 1726.000000)">
                <g id="icon" transform="translate(50.000000, 63.000000)">
                    <path d="M31.1549275,0.038057975 C30.5147547,0.107370061 29.9166913,0.39106991 29.4575982,0.8432102 L0.870998169,29.4708449 C0.314309589,30.0102311 4.36390646e-16,30.7527435 0,31.5284561 C-4.36390646e-16,32.3041687 0.314309589,33.0466811 0.870998169,33.5860674 L29.4575982,62.213702 C30.1916426,62.9488934 31.2615968,63.2360469 32.2643895,62.9669865 C33.2671821,62.697926 34.0504518,61.913532 34.3191266,60.9092999 C34.5878013,59.9050677 34.3010595,58.8335777 33.5669219,58.0984796 L9.89364379,34.3912196 L94.40278,34.3912196 C117.999718,34.3912196 137.28268,53.7018617 137.28268,77.3326716 C137.28268,100.813026 118.240957,120.030394 94.8494456,120.274124 C94.6995575,120.275687 94.5530198,120.274124 94.40278,120.274124 L94.1347806,120.274124 L51.52288,120.274124 L48.1282213,120.274124 L45.80556,120.274124 L45.80556,122.242274 C45.6339189,122.795826 45.6339189,123.388487 45.80556,123.942039 L45.80556,125.999651 L48.2175544,125.999651 L51.52288,125.999651 L93.9561144,125.999651 L94.40278,125.999651 C94.4935853,125.999651 94.5800855,126.000157 94.6707794,125.999651 C94.7005553,126.000116 94.7303366,126.000116 94.7601125,125.999651 C94.9128536,125.998514 95.054363,125.912754 95.2067781,125.910189 C121.548255,125.466976 143,103.812037 143,77.3326716 C143,50.8533062 121.548255,29.1983671 95.2067781,28.755154 C95.0897113,28.7176728 94.9703528,28.6877903 94.8494456,28.6656927 C94.6984169,28.6642893 94.5541232,28.6656927 94.40278,28.6656927 L9.89364379,28.6656927 L33.5669219,4.95843269 C34.4893054,4.09822633 34.740348,2.73459489 34.1849203,1.601544 C33.6294926,0.468493118 32.3986524,-0.166624369 31.1549275,0.038057975 L31.1549275,0.038057975 Z M-2.06501483e-13,120 L-2.06501483e-13,126 L6,126 L6,120 L-2.06501483e-13,120 Z M12,120 L12,126 L18,126 L18,120 L12,120 Z M23,120 L23,126 L29,126 L29,120 L23,120 Z M34,120 L34,126 L40,126 L40,120 L34,120 Z" id="Shape" fill="#33B4B0"></path>
                    <g id="₽">
                        <use fill="#33B4B0" fill-rule="evenodd" xlink:href="#path-1"></use>
                        <use fill="black" fill-opacity="1" xlink:href="#path-1"></use>
                    </g>
                </g>
            </g>
        </g>
    </g>
</svg>