<?xml version="1.0" encoding="UTF-8"?>
<svg width="143px" height="143px" viewBox="0 0 143 143" version="1.1" xmlns="http://www.w3.org/2000/svg" xmlns:xlink="http://www.w3.org/1999/xlink">
    <!-- Generator: sketchtool 42 (36781) - http://www.bohemiancoding.com/sketch -->
    <title>9C3694D1-BB17-41A3-96B3-8D09BDEF2502</title>
    <desc>Created with sketchtool.</desc>
    <defs></defs>
    <g id="Promotions" stroke="none" stroke-width="1" fill="none" fill-rule="evenodd">
        <g id="Estetica---Promotions---Desktop" transform="translate(-300.000000, -1320.000000)" fill="#33B4B0">
            <g id="Promo-banner" transform="translate(250.000000, 1251.000000)">
                <g id="icon" transform="translate(50.000000, 69.000000)">
                    <path d="M33.8582704,0 C24.4231956,0 16.7132723,7.70992335 16.7132723,17.1449981 C16.7132723,26.5800729 24.4231956,34.2899963 33.8582704,34.2899963 C43.2933457,34.2899963 51.0032685,26.5800729 51.0032685,17.1449981 C51.0032685,7.70992335 43.2933457,0 33.8582704,0 Z M33.8582704,5.71499938 C40.2047315,5.71499938 45.2882691,10.7985382 45.2882691,17.1449981 C45.2882691,23.4914581 40.2047315,28.5749969 33.8582704,28.5749969 C27.5118105,28.5749969 22.4282716,23.4914581 22.4282716,17.1449981 C22.4282716,10.7985382 27.5118105,5.71499938 33.8582704,5.71499938 Z M25.5536619,37.1474959 C21.1816874,37.1474959 17.8591525,39.0832948 15.7310068,41.3444486 C13.602861,43.6056024 12.4995255,46.1275659 11.9805384,47.684526 C11.9805384,47.684526 3.15378274,74.681103 0.550539663,82.7781941 C-0.384537362,85.5604244 -0.116816444,88.4255479 1.26491459,90.6363182 C2.66157271,92.8709716 5.25605927,94.2974897 8.14077321,94.2974897 L6.8906171,97.9586612 C6.43403551,99.6063926 6.45648574,101.72766 7.51569515,103.316473 C7.61953223,103.476868 7.73919349,103.626444 7.87288261,103.762957 C8.78114203,104.671217 10.0318825,105.727488 12.1591321,105.727488 L19.570772,105.727488 L19.570772,134.302485 C19.570772,139.004372 23.4413853,142.874984 28.143271,142.874984 C30.335179,142.874984 32.3355831,142.016974 33.8582704,140.642563 C35.3809577,142.016974 37.3813618,142.874984 39.5732698,142.874984 C44.2751569,142.874984 48.1457688,139.004372 48.1457688,134.302485 L48.1457688,105.727488 L55.5574087,105.727488 C57.6846572,105.727488 58.9353991,104.671217 59.8436582,103.762957 C59.9773473,103.626444 60.0970086,103.476868 60.2008456,103.316473 C61.2600551,101.72766 61.2825064,99.6063926 60.9152206,98.1372549 C60.8875444,98.0767017 59.5757676,94.2974897 59.5757676,94.2974897 C62.4604821,94.2974897 65.0549689,92.8709716 66.4516262,90.6363182 C67.8333559,88.4255479 68.1010779,85.5604244 67.1660011,82.8674909 C64.5627589,74.681103 55.7360024,47.684526 55.7360024,47.684526 C55.2170147,46.1275659 54.1136798,43.6056024 51.985534,41.3444486 C49.8573883,39.0832948 46.5348534,37.1474959 42.1628789,37.1474959 L36.9836607,37.1474959 L25.5536619,37.1474959 Z M25.5536619,42.8624953 L36.9836607,42.8624953 L42.1628789,42.8624953 C44.9346536,42.8624953 46.5770244,43.8913524 47.8778782,45.2735107 C49.1787321,46.655669 49.9506314,48.4556738 50.2888936,49.4704633 C50.2888936,49.4704633 59.1559037,76.5903899 61.7188924,84.5641314 C61.7184273,84.5938952 61.7184273,84.6236644 61.7188924,84.6534283 C62.1766895,85.9352597 62.0188755,86.9773785 61.6295955,87.6002248 C61.2403154,88.2230712 60.6915526,88.5824903 59.5757676,88.5824903 C58.4803937,88.5824903 57.5570269,87.9914479 57.0754554,86.7072562 C57.050105,86.6165477 57.0203033,86.5271426 56.9861585,86.4393656 L48.8601438,61.9720245 C48.4274649,60.5221452 46.9396688,59.6607896 45.4668629,60.0074934 C44.6700046,60.1894885 43.9892153,60.7039846 43.5966171,61.420903 C43.2040189,62.1378214 43.1371931,62.9885357 43.413035,63.7579618 L51.5390497,88.0467091 L51.5390497,88.136006 C51.5747061,88.3504588 51.6346219,88.5601641 51.7176434,88.7610841 C51.765758,88.8893886 51.8423819,88.9932045 51.8962372,89.1182715 L55.3788149,99.5660047 C55.549922,100.250402 55.5155177,100.003248 55.4681118,100.012489 L45.7347535,100.012489 L45.2882691,100.012489 L36.4478795,100.012489 L21.8924905,100.012489 L12.248429,100.012489 C12.2010117,100.003345 12.1666274,100.250404 12.3377259,99.5660047 L15.9988974,88.7610841 C16.0967555,88.5031724 16.1569058,88.2324957 16.1774911,87.9574123 L24.3035058,63.7579618 C24.6520067,62.7796155 24.4423058,61.689214 23.7557836,60.9099185 C23.0692614,60.130623 22.0139993,59.7851207 20.9995218,60.0074934 C19.9805383,60.2228898 19.1594206,60.975581 18.856397,61.9720245 L10.6410854,86.7072562 C10.1595136,87.9914479 9.23614799,88.5824903 8.14077321,88.5824903 C7.02498759,88.5824903 6.47622449,88.2230712 6.08694531,87.6002248 C5.69766613,86.9773785 5.53985185,85.9352597 5.99764844,84.6534283 C5.99811351,84.6236644 5.99811351,84.5938952 5.99764844,84.5641314 C8.56063707,76.5903899 17.4276472,49.4704633 17.4276472,49.4704633 C17.76591,48.4556738 18.5378087,46.655669 19.8386626,45.2735107 C21.1395164,43.8913524 22.7818872,42.8624953 25.5536619,42.8624953 Z M111.993027,54.2924941 C111.056221,54.4395248 110.253358,55.0416725 109.849903,55.8998376 L94.9373262,85.7249906 L71.0057663,85.7249906 C70.9165186,85.720803 70.8271235,85.720803 70.7378757,85.7249906 C70.648628,85.720803 70.5592329,85.720803 70.4699851,85.7249906 C69.103866,85.9856562 68.1237596,87.191941 68.1482667,88.5824903 C68.1482667,99.6005176 73.8053045,109.302118 82.4357651,115.550144 C77.4120635,117.770569 73.863266,122.766993 73.863266,128.587486 C73.863266,136.444407 80.2938433,142.874984 88.1507645,142.874984 C96.0076856,142.874984 102.438263,136.444407 102.438263,128.587486 C102.438263,126.45019 101.949785,124.430061 101.09881,122.604596 C102.483486,122.750177 103.872936,122.872487 105.295763,122.872487 C107.799732,122.872487 110.243252,122.599855 112.618106,122.158112 C111.621384,124.103775 111.010762,126.262261 111.010762,128.587486 C111.010762,136.444407 117.441339,142.874984 125.29826,142.874984 C133.155182,142.874984 139.585759,136.444407 139.585759,128.587486 C139.585759,122.036779 135.088706,116.503148 129.048729,114.835769 C136.950896,108.735764 142.091475,99.6739211 142.353962,89.3861621 C142.385799,89.3276892 142.415582,89.2681216 142.443259,89.2075684 C142.447382,88.998268 142.443259,88.792788 142.443259,88.5824903 C142.450706,88.4635443 142.450706,88.3442489 142.443259,88.2253029 C142.261747,72.0604586 129.81323,58.6223519 113.153887,54.3817909 C112.777161,54.2726814 112.382008,54.242285 111.993027,54.2924941 Z M113.868262,60.8111652 C126.24237,64.7759946 134.88544,74.301347 136.192478,85.7249906 L101.366701,85.7249906 L113.868262,60.8111652 Z M74.4883441,91.43999 L136.103181,91.43999 C134.45807,105.780406 121.617152,117.157487 105.295763,117.157487 C88.974373,117.157487 76.1334552,105.780406 74.4883441,91.43999 Z M25.2857713,105.727488 L31.0007707,105.727488 L31.0007707,134.302485 C31.0007707,135.887097 29.7278832,137.159985 28.143271,137.159985 C26.5586574,137.159985 25.2857713,135.887097 25.2857713,134.302485 L25.2857713,105.727488 Z M36.7157701,105.727488 L42.4307695,105.727488 L42.4307695,134.302485 C42.4307695,135.887097 41.1578819,137.159985 39.5732698,137.159985 C37.9886576,137.159985 36.7157701,135.887097 36.7157701,134.302485 L36.7157701,105.727488 Z M88.1507645,120.014987 C92.9190713,120.014987 96.7232635,123.819179 96.7232635,128.587486 C96.7232635,133.355793 92.9190713,137.159985 88.1507645,137.159985 C83.3824576,137.159985 79.5782654,133.355793 79.5782654,128.587486 C79.5782654,123.819179 83.3824576,120.014987 88.1507645,120.014987 Z M125.29826,120.014987 C130.066567,120.014987 133.870759,123.819179 133.870759,128.587486 C133.870759,133.355793 130.066567,137.159985 125.29826,137.159985 C120.529954,137.159985 116.725761,133.355793 116.725761,128.587486 C116.725761,123.819179 120.529954,120.014987 125.29826,120.014987 Z" id="Shape"></path>
                </g>
            </g>
        </g>
    </g>
</svg>